# Blender v2.79 (sub 0) OBJ File: 'nori_plane.blend'
# www.blender.org
mtllib plane.mtl
o Plane.001_Plane.006
v 1.080845 1.000000 -0.043290
v 0.086866 1.000000 -0.001116
v -0.003038 1.000000 -1.999101
v 0.080854 0.994951 -0.000861
v -0.003038 1.000000 -1.999101
v 0.039946 0.762740 0.000875
v 0.080232 0.991419 -0.000835
vn 0.0000 1.0000 -0.0000
vn 0.9839 -0.1736 -0.0417
usemtl Material.001
s off
f 1//1 3//1 2//1
f 5//2 7//2 6//2
f 7//2 5//2 4//2
o Plane
v -1.002161 1.000000 0.002454
v -0.007291 1.000000 0.000010
v -0.007078 1.000000 -1.999997
v -0.001274 0.994951 -0.000005
v -0.007078 1.000000 -1.999997
v 0.039671 0.762740 -0.000106
v -0.000651 0.991419 -0.000007
vn 0.0000 1.0000 0.0000
vn -0.9848 -0.1736 0.0024
usemtl Material.002
s off
f 8//3 9//3 10//3
f 12//4 13//4 14//4
f 14//4 11//4 12//4
