# Blender v2.79 (sub 0) OBJ File: ''
# www.blender.org
mtllib plane.mtl
o Plane_Plane.002
v 0.009574 0.054297 -0.401520
v -0.006206 0.023163 -0.400287
v 0.749431 0.356452 1.400000
v 0.000000 0.000000 -1.399998
v 0.000000 0.000000 1.400000
v -0.001862 0.006948 -1.100086
v -0.077646 0.289778 1.400000
v 0.052094 0.295442 1.400000
v 0.002872 0.016289 -1.100456
v -0.077646 0.289778 -1.107109
v 0.052094 0.295442 -1.116108
v 0.052094 0.295442 -0.423699
v -0.082564 0.289348 -0.407026
v -0.042317 0.292869 -1.106259
v -0.067905 0.253424 -1.143854
v 0.084336 0.298263 -0.416829
v 0.066713 0.296721 -1.102222
v 0.251195 0.312861 -0.426078
v -0.266294 0.273273 -0.411450
v -0.757522 0.230296 1.400000
vn 0.9778 0.2076 0.0293
vn -0.9848 0.1736 -0.0000
vn 0.9653 0.2407 -0.1010
vn -0.9666 0.2555 0.0202
vn -0.9659 -0.2588 -0.0000
vn 0.0872 -0.9962 0.0000
vn 0.9848 -0.1736 -0.0000
vn -0.0445 0.7042 -0.7086
vn -0.0872 0.9962 0.0000
usemtl None
s off
f 6//1 14//1 13//1 2//1
f 9//2 11//2 4//2
f 4//3 15//3 14//3 6//3
f 1//4 16//4 17//4 11//4 9//4
f 10//5 15//5 4//5 5//5 7//5
f 10//6 7//6 20//6
f 11//7 12//7 8//7 5//7 4//7
f 15//8 10//8 14//8
f 16//9 18//9 17//9
f 3//6 8//6 12//6 11//6 17//6
l 13 19
